<?xml version="1.0" encoding="UTF-8"?>
<svg width="40px" height="40px" viewBox="0 0 40 40" version="1.1" xmlns="http://www.w3.org/2000/svg" xmlns:xlink="http://www.w3.org/1999/xlink">
    <title>icons/home</title>
    <g id="icons/home" stroke="none" stroke-width="1" fill="none" fill-rule="evenodd">
        <path d="M32.5,20 C33.0128358,20 33.4355072,20.3860402 33.4932723,20.8833789 L33.5,21 L33.5,38 L22.5,38 L22.5,29 L17.5,29 L17.5,38 L6.5,38 L6.5,21 C6.5,20.4477153 6.94771525,20 7.5,20 C8.01283584,20 8.43550716,20.3860402 8.49327227,20.8833789 L8.5,21 L8.5,36 L15.5,36 L15.5,27 L24.5,27 L24.5,36 L31.5,36 L31.5,21 C31.5,20.4871642 31.8860402,20.0644928 32.3833789,20.0067277 L32.5,20 Z M19.9699559,2.0004464 L20.0445591,2.00098248 L20.1469809,2.01078654 L20.1469809,2.01078654 L20.2870565,2.04187165 L20.2870565,2.04187165 L20.3957594,2.08135166 L20.4403579,2.1018719 L20.4403579,2.1018719 L20.5360511,2.15554825 L20.5360511,2.15554825 L20.6372384,2.22922748 L20.6372384,2.22922748 L20.6967857,2.28272062 L20.6967857,2.28272062 L38.1967857,19.2827206 C38.5929281,19.6675447 38.6021035,20.3006432 38.2172794,20.6967857 C37.8324553,21.0929281 37.1993568,21.1021035 36.8032143,20.7172794 L19.9999993,4.39399934 L3.19678568,20.7172794 C2.80064322,21.1021035 2.16754473,21.0929281 1.78272062,20.6967857 C1.42749837,20.3311157 1.40799162,19.7635424 1.71866926,19.3757126 L1.80321432,19.2827206 L19.3032143,2.28272062 L19.3872847,2.20953832 L19.3872847,2.20953832 L19.4639522,2.15554679 L19.4639522,2.15554679 L19.5158283,2.12474087 L19.5158283,2.12474087 L19.5596672,2.10186361 L19.5596672,2.10186361 L19.6300068,2.07068365 L19.7580291,2.0295477 L19.7580291,2.0295477 L19.8815608,2.00698628 L19.8815608,2.00698628 L19.9699559,2.0004464 Z" id="home" fill="#00AEEF" fill-rule="nonzero"></path>
    </g>
</svg>