<?xml version="1.0" encoding="UTF-8"?>
<svg width="28px" height="28px" viewBox="0 0 28 28" version="1.1" xmlns="http://www.w3.org/2000/svg" xmlns:xlink="http://www.w3.org/1999/xlink">
    <title>icons/small/information</title>
    <g id="icons/small/information" stroke="none" stroke-width="1" fill="none" fill-rule="evenodd">
        <path d="M14,0 C21.7319865,0 28,6.2680135 28,14 C28,21.7319865 21.7319865,28 14,28 C6.2680135,28 0,21.7319865 0,14 C0,6.2680135 6.2680135,0 14,0 Z M14,1.5 C7.09644063,1.5 1.5,7.09644063 1.5,14 C1.5,20.9035594 7.09644063,26.5 14,26.5 C20.9035594,26.5 26.5,20.9035594 26.5,14 C26.5,7.09644063 20.9035594,1.5 14,1.5 Z M14,12 C14.3796958,12 14.693491,12.2970041 14.7431534,12.6823468 L14.75,12.7894737 L14.75,21.2105263 C14.75,21.6465406 14.4142136,22 14,22 C13.6203042,22 13.306509,21.7029959 13.2568466,21.3176532 L13.25,21.2105263 L13.25,12.7894737 C13.25,12.3534594 13.5857864,12 14,12 Z M14,7 C14.5522847,7 15,7.44771525 15,8 C15,8.55228475 14.5522847,9 14,9 C13.4477153,9 13,8.55228475 13,8 C13,7.44771525 13.4477153,7 14,7 Z" id="Shape" fill="#00AEEF" fill-rule="nonzero"></path>
    </g>
</svg>