<svg width="22" height="22" viewBox="0 0 22 22" fill="none" xmlns="http://www.w3.org/2000/svg">
<path fill-rule="evenodd" clip-rule="evenodd" d="M10.78 10.7799V5.04153C10.78 4.92003 10.8785 4.82153 11 4.82153C11.1215 4.82153 11.22 4.92003 11.22 5.04153V10.7799H16.9583C17.0798 10.7799 17.1783 10.8784 17.1783 10.9999C17.1783 11.1214 17.0798 11.2199 16.9583 11.2199H11.22V16.9582C11.22 17.0797 11.1215 17.1782 11 17.1782C10.8785 17.1782 10.78 17.0797 10.78 16.9582V11.2199H5.04166C4.92015 11.2199 4.82166 11.1214 4.82166 10.9999C4.82166 10.8784 4.92015 10.7799 5.04166 10.7799H10.78Z" fill="#F2F4F7"/>
<mask id="mask0" mask-type="alpha" maskUnits="userSpaceOnUse" x="4" y="4" width="14" height="14">
<path fill-rule="evenodd" clip-rule="evenodd" d="M10.78 10.7799V5.04153C10.78 4.92003 10.8785 4.82153 11 4.82153C11.1215 4.82153 11.22 4.92003 11.22 5.04153V10.7799H16.9583C17.0798 10.7799 17.1783 10.8784 17.1783 10.9999C17.1783 11.1214 17.0798 11.2199 16.9583 11.2199H11.22V16.9582C11.22 17.0797 11.1215 17.1782 11 17.1782C10.8785 17.1782 10.78 17.0797 10.78 16.9582V11.2199H5.04166C4.92015 11.2199 4.82166 11.1214 4.82166 10.9999C4.82166 10.8784 4.92015 10.7799 5.04166 10.7799H10.78Z" fill="white"/>
</mask>
<g mask="url(#mask0)">
<rect width="22" height="22" fill="white"/>
<rect width="22" height="22" fill="#F2F4F7"/>
</g>
</svg>
