<?xml version="1.0" encoding="UTF-8"?>
<svg width="97px" height="96px" viewBox="0 0 97 96" version="1.1" xmlns="http://www.w3.org/2000/svg" xmlns:xlink="http://www.w3.org/1999/xlink">
    <title>icons/send_button</title>
    <g id="Page-1" stroke="none" stroke-width="1" fill="none" fill-rule="evenodd">
        <g id="Home-&gt;-Typing" transform="translate(-622.000000, -438.000000)">
            <g id="Group" transform="translate(622.435500, 438.000000)">
                <circle id="Oval" fill="#00AEEF" cx="48" cy="48" r="48"></circle>
                <path d="M50.6954119,47.7592306 L35.4648942,45.220811 C34.939778,45.1332916 34.5374407,44.7063933 34.4811542,44.1770177 L30.0070055,31.3126132 C29.9081467,30.3828434 30.8744613,29.7100638 31.7121393,30.1254437 L65.6175596,46.9381456 C66.4958162,47.3736473 66.4958162,48.6263527 65.6175596,49.0618544 L31.7121393,65.8745563 C30.8744613,66.2899362 29.9081467,65.6171566 30.0070055,64.6873868 L34.4811542,51.8229823 C34.5374407,51.2936067 34.939778,50.8667084 35.4648942,50.779189 L50.6837511,48.1553806 C50.7935846,48.1436617 50.8731222,48.0451239 50.8614033,47.9352904 C50.8518755,47.8459926 50.7839947,47.7739944 50.6954119,47.7592306 Z" id="Path" fill="#FFFFFF" fill-rule="nonzero"></path>
            </g>
        </g>
    </g>
</svg>