<?xml version="1.0" encoding="UTF-8"?>
<svg width="40px" height="40px" viewBox="0 0 40 40" version="1.1" xmlns="http://www.w3.org/2000/svg" xmlns:xlink="http://www.w3.org/1999/xlink">
    <title>icons/settings</title>
    <g id="icons/settings" stroke="none" stroke-width="1" fill="none" fill-rule="evenodd">
        <path d="M22,2 C23.1045695,2 24,2.8954305 24,4 L24.0004816,6.58861057 C24.0005985,7.21736238 24.379275,7.78419611 24.9600802,8.0250159 C25.5408077,8.26580346 26.2094036,8.13299247 26.6540121,7.68853051 L28.4852814,5.85786438 C29.26633,5.07681579 30.5326599,5.07681579 31.3137085,5.85786438 L34.1421356,8.6862915 C34.9231842,9.46734008 34.9231842,10.73367 34.1421356,11.5147186 L32.3118382,13.3456191 C31.8671498,13.7904541 31.7342582,14.4593845 31.975145,15.0404177 C32.2160483,15.6214909 32.7832013,16.0002847 33.4122327,16.000229 L36,16 C37.1045695,16 38,16.8954305 38,18 L38,22 C38,23.1045695 37.1045695,24 36,24 L33.4113894,24.0004816 C32.7826376,24.0005985 32.2158039,24.379275 31.9749841,24.9600802 C31.7341965,25.5408077 31.8670075,26.2094036 32.3114695,26.6540121 L34.1421356,28.4852814 C34.9231842,29.26633 34.9231842,30.5326599 34.1421356,31.3137085 L31.3137085,34.1421356 C30.5326599,34.9231842 29.26633,34.9231842 28.4852814,34.1421356 L26.6540121,32.3114695 C26.2094036,31.8670075 25.5408077,31.7341965 24.9600802,31.9749841 C24.379275,32.2158039 24.0005985,32.7826376 24.0004816,33.4113894 L24,36 C24,37.1045695 23.1045695,38 22,38 L18,38 C16.8954305,38 16,37.1045695 16,36 L16.000229,33.4122327 C16.0002847,32.7832013 15.6214909,32.2160483 15.0404177,31.975145 C14.4593845,31.7342582 13.7904541,31.8671498 13.3456191,32.3118382 L11.5147186,34.1421356 C10.73367,34.9231842 9.46734008,34.9231842 8.6862915,34.1421356 L5.85786438,31.3137085 C5.07681579,30.5326599 5.07681579,29.26633 5.85786438,28.4852814 L7.68853051,26.6540121 C8.13299247,26.2094036 8.26580346,25.5408077 8.0250159,24.9600802 C7.78419611,24.379275 7.21736238,24.0005985 6.58861057,24.0004816 L4,24 C2.8954305,24 2,23.1045695 2,22 L2,18 C2,16.8954305 2.8954305,16 4,16 L6.58776732,16.000229 C7.21679873,16.0002847 7.78395172,15.6214909 8.02485504,15.0404177 C8.26574176,14.4593845 8.13285023,13.7904541 7.68816179,13.3456191 L5.85786438,11.5147186 C5.07681579,10.73367 5.07681579,9.46734008 5.85786438,8.6862915 L8.6862915,5.85786438 C9.46734008,5.07681579 10.73367,5.07681579 11.5147186,5.85786438 L13.3456191,7.68816179 C13.7904541,8.13285023 14.4593845,8.26574176 15.0404177,8.02485504 C15.6214909,7.78395172 16.0002847,7.21679873 16.000229,6.58776732 L16,4 C16,2.8954305 16.8954305,2 18,2 L22,2 Z M22,3.99997787 L18,3.99997787 L18.000229,6.58759031 C18.0003563,8.02538085 17.1345393,9.32173456 15.8063678,9.87237243 C14.5444013,10.3955628 13.1010731,10.1475221 12.0879423,9.24974441 L11.9316385,9.10260828 L10.1005051,7.27207794 L7.27207794,10.1005051 L9.10260828,11.9316385 C10.1192762,12.9486414 10.4230991,14.4779821 9.87237243,15.8063678 C9.34795541,17.071293 8.14715214,17.9168491 6.79196155,17.9944 L6.58759031,18.000229 L4,18 L4,22 L6.58898264,22.0004816 C8.02626421,22.000749 9.32200547,22.8663762 9.87250224,24.1940553 C10.3956379,25.4557453 10.1476765,26.8987933 9.25008315,27.9117204 L9.102977,28.0679927 L7.27207794,29.8994949 L10.1005051,32.7279221 L11.9316385,30.8973917 C12.9486414,29.8807238 14.4779821,29.5769009 15.8063678,30.1276276 C17.071293,30.6520446 17.9168491,31.8528479 17.9944,33.2080384 L18.000229,33.4124097 L18,36 L22,36 L22.0004816,33.4110174 C22.000749,31.9737358 22.8663762,30.6779945 24.1940553,30.1274978 C25.4557453,29.6043621 26.8987933,29.8523235 27.9117204,30.7499168 L28.0679927,30.897023 L29.8994949,32.7279221 L32.7279221,29.8994949 L30.897023,28.0679927 C29.8805607,27.0511955 29.5768286,25.52215 30.1274978,24.1940553 C30.6517804,22.929599 31.8520218,22.0842374 33.2067195,22.0063631 L33.4110174,22.0004816 L36.0000221,22 L36.0000221,18 L33.4124097,18.000229 C31.9746191,18.0003563 30.6782654,17.1345393 30.1276276,15.8063678 C29.6044372,14.5444013 29.8524779,13.1010731 30.7502556,12.0879423 L30.8973917,11.9316385 L32.7279221,10.1005051 L29.8994949,7.27207794 L28.0679927,9.102977 C27.0511955,10.1194393 25.52215,10.4231714 24.1940553,9.87250224 C22.929599,9.3482196 22.0842374,8.14797825 22.0063631,6.79328053 L22.0004816,6.58898264 L22,3.99997787 Z M20,13 C23.8659932,13 27,16.1340068 27,20 C27,23.8659932 23.8659932,27 20,27 C16.1340068,27 13,23.8659932 13,20 C13,16.1340068 16.1340068,13 20,13 Z M20,15 C17.2385763,15 15,17.2385763 15,20 C15,22.7614237 17.2385763,25 20,25 C22.7614237,25 25,22.7614237 25,20 C25,17.2385763 22.7614237,15 20,15 Z" id="settings" fill="#040506" fill-rule="nonzero"></path>
    </g>
</svg>