<?xml version="1.0" encoding="UTF-8"?>
<svg width="64px" height="64px" viewBox="0 0 64 64" version="1.1" xmlns="http://www.w3.org/2000/svg" xmlns:xlink="http://www.w3.org/1999/xlink">
    <title>icons/voicenote</title>
    <g id="icons/voicenote" stroke="none" stroke-width="1" fill="none" fill-rule="evenodd">
        <path d="M56.5,33 C57.3284271,33 58,33.6715729 58,34.5 C58,35.3284271 57.3284271,36 56.5,36 L50,36 L50,38 C50,47.4357425 42.7396854,55.1757476 33.5007437,55.938328 L33.5,61.5 C33.5,62.3284271 32.8284271,63 32,63 C31.1715729,63 30.5,62.3284271 30.5,61.5 L30.5002546,55.9384103 C21.2608376,55.1763052 14,47.4360823 14,38 L14,36 L7.5,36 C6.67157288,36 6,35.3284271 6,34.5 C6,33.6715729 6.67157288,33 7.5,33 L56.5,33 Z M47,36 L17,36 L17,38 C17,46.2842712 23.7157288,53 32,53 C40.1794071,53 46.8297302,46.4532136 46.9967822,38.3138282 L47,38 L47,36 Z M32,1 C41.9411255,1 50,9.0588745 50,19 L50,27.5 C50,28.3284271 49.3284271,29 48.5,29 C47.6715729,29 47,28.3284271 47,27.5 L47,19 C47,10.7157288 40.2842712,4 32,4 C23.8205929,4 17.1702698,10.5467864 17.0032178,18.6861718 L17,19 L17,27.5 C17,28.3284271 16.3284271,29 15.5,29 C14.6715729,29 14,28.3284271 14,27.5 L14,19 C14,9.0588745 22.0588745,1 32,1 Z" id="voicenote" fill="#697D7E" fill-rule="nonzero"></path>
    </g>
</svg>