<?xml version="1.0" encoding="UTF-8"?>
<svg width="64px" height="64px" viewBox="0 0 64 64" version="1.1" xmlns="http://www.w3.org/2000/svg" xmlns:xlink="http://www.w3.org/1999/xlink">
    <title>icons/image</title>
    <g id="icons/image" stroke="none" stroke-width="1" fill="none" fill-rule="evenodd">
        <path d="M56,4 C58.209139,4 60,5.790861 60,8 L60,56 C60,58.209139 58.209139,60 56,60 L8,60 C5.790861,60 4,58.209139 4,56 L4,8 C4,5.790861 5.790861,4 8,4 L56,4 Z M56,7 L8,7 C7.48716416,7 7.06449284,7.38604019 7.00672773,7.88337887 L7,8 L7,56 C7,56.5128358 7.38604019,56.9355072 7.88337887,56.9932723 L8,57 L56,57 C56.5128358,57 56.9355072,56.6139598 56.9932723,56.1166211 L57,56 L57,8 C57,7.48716416 56.6139598,7.06449284 56.1166211,7.00672773 L56,7 Z M52.5,25.5 C53.0503009,26.0480463 53.0864083,26.9170364 52.6070907,27.5071823 L52.5043545,27.6213159 L35.1459603,45.162978 L35.0701591,45.2432758 L35.0701591,45.2432758 C34.516929,45.7883651 33.647636,45.8162462 33.0620531,45.3313648 L32.948897,45.2275529 L24.072,36.2178352 L13.5515593,46.5611035 C12.9607892,47.1418635 12.0110764,47.1337487 11.4303164,46.5429785 C10.8858539,45.9891315 10.8589572,45.1198076 11.3445015,44.5347741 L11.4484414,44.4217356 L23.0554688,33.0113807 C23.6462389,32.4306207 24.5959517,32.4387355 25.1767117,33.0295057 C25.2394885,33.0933645 25.2953847,33.1614174 25.3444081,33.232745 L34.017,42.0378352 L50.3786841,25.5043545 C50.9632669,24.9173669 51.9130123,24.9154173 52.5,25.5 Z M24,13 C27.0375661,13 29.5,15.4624339 29.5,18.5 C29.5,21.5375661 27.0375661,24 24,24 C20.9624339,24 18.5,21.5375661 18.5,18.5 C18.5,15.4624339 20.9624339,13 24,13 Z" id="image" fill="#697D7E" fill-rule="nonzero"></path>
    </g>
</svg>