<?xml version="1.0" encoding="UTF-8"?>
<svg width="28px" height="28px" viewBox="0 0 28 28" version="1.1" xmlns="http://www.w3.org/2000/svg" xmlns:xlink="http://www.w3.org/1999/xlink">
    <title>icons/small/membership</title>
    <g id="icons/small/membership" stroke="none" stroke-width="1" fill="none" fill-rule="evenodd">
        <path d="M20.5,17.44 C20.8796958,17.44 21.193491,17.7221539 21.2431534,18.0882294 L21.25,18.19 L21.25,26.2468107 C21.25,27.213309 20.4664983,27.9968107 19.5,27.9968107 C19.1873655,27.9968107 18.8814277,27.9130809 18.6134903,27.7556532 L18.4828332,27.6708443 L14.6453095,24.2154702 C14.57577,24.1657992 14.4871291,24.155865 14.4099491,24.1856676 L14.3546905,24.2154702 L10.5171668,27.6708443 C9.73069481,28.23261 8.63773216,28.0504495 8.07596643,27.2639775 C7.89425133,27.0095764 7.78456229,26.7119576 7.75693104,26.4024249 L7.75,26.2468107 L7.75,18.19 C7.75,17.7757864 8.08578644,17.44 8.5,17.44 C8.87969577,17.44 9.19349096,17.7221539 9.24315338,18.0882294 L9.25,18.19 L9.25,26.2468107 C9.25,26.2989164 9.26628078,26.34972 9.29656663,26.3921202 C9.36344351,26.4857478 9.48301849,26.5194239 9.5860383,26.4816062 L9.64530955,26.450244 L13.4828332,22.99487 C14.0478416,22.5912926 14.7929918,22.5624656 15.3837348,22.9083891 L15.5171668,22.99487 L19.3546905,26.450244 C19.3970906,26.4805299 19.4478943,26.4968107 19.5,26.4968107 C19.6183467,26.4968107 19.7174868,26.4145773 19.7433973,26.3041334 L19.75,26.2468107 L19.75,18.19 C19.75,17.7757864 20.0857864,17.44 20.5,17.44 Z M14.5,1.77635684e-15 C19.1944204,1.77635684e-15 23,3.80557963 23,8.5 C23,13.1944204 19.1944204,17 14.5,17 C9.80557963,17 6,13.1944204 6,8.5 C6,3.80557963 9.80557963,1.77635684e-15 14.5,1.77635684e-15 Z M14.5,1.5 C10.6340068,1.5 7.5,4.63400675 7.5,8.5 C7.5,12.3659932 10.6340068,15.5 14.5,15.5 C18.3659932,15.5 21.5,12.3659932 21.5,8.5 C21.5,4.63400675 18.3659932,1.5 14.5,1.5 Z" id="Shape" fill="#00AEEF" fill-rule="nonzero"></path>
    </g>
</svg>