<?xml version="1.0" encoding="UTF-8"?>
<svg width="40px" height="40px" viewBox="0 0 40 40" version="1.1" xmlns="http://www.w3.org/2000/svg" xmlns:xlink="http://www.w3.org/1999/xlink">
    <title>icons/phone</title>
    <g id="icons/phone" stroke="none" stroke-width="1" fill="none" fill-rule="evenodd">
        <path d="M11.9483764,1 C13.0550578,1 13.9522004,1.89714255 13.9522004,3.00382397 L13.9522004,12.1929327 C13.9522004,12.7243799 13.7410838,13.2340604 13.3652939,13.6098503 L11.3076508,15.6675358 C10.9877595,15.9873922 10.9224579,16.4821656 11.1483843,16.8740786 L11.539807,17.5438959 L11.8706467,18.0902584 L12.0575492,18.3859141 C14.4045984,22.015585 17.4651579,25.1407562 21.040746,27.5629459 L21.3835002,27.7891024 L21.7879096,28.0449584 L22.2539739,28.330514 L23.0686737,28.8145339 C23.4612148,29.0442684 23.9593437,28.9801784 24.2809375,28.6585514 L26.3473595,26.5919159 C26.681395,26.2578804 27.1212205,26.0539572 27.588088,26.0127648 L27.764277,26.0050094 L36.9533858,26.0050094 C38.0097635,26.0050094 38.8752184,26.8224471 38.9517136,27.8592856 L38.9572098,28.0088334 L38.9569087,33.0611552 L39,33.0611835 L39,36.9966233 C39,38.0530135 38.1825762,38.9184786 37.1457255,38.9949746 L36.948327,38.9998996 L36.0001814,38.9477773 L35.4851846,38.9100507 L35.038363,38.8690273 C17.1889502,37.0236119 2.99956027,22.8464836 1.13523935,5.00268849 L1.11368379,4.78350074 L1.07314338,4.29247933 L1.03603059,3.73126337 L1.00234541,3.09985286 C0.951712294,2.04467932 1.72675079,1.14104371 2.75874302,1.0149568 L2.95584873,1.00057544 L11.9483764,1 Z" id="Path" fill="#00AEEF" fill-rule="nonzero"></path>
    </g>
</svg>