<?xml version="1.0" encoding="UTF-8"?>
<svg width="56px" height="56px" viewBox="0 0 56 56" version="1.1" xmlns="http://www.w3.org/2000/svg" xmlns:xlink="http://www.w3.org/1999/xlink">
    <title>icons/profile_placeholder</title>
    <g id="icons/profile_placeholder" stroke="none" stroke-width="1" fill="none" fill-rule="evenodd">
        <g id="Group">
            <circle id="Oval" fill="#FFFFFF" cx="28" cy="28" r="28"></circle>
            <path d="M20.1411387,14.4403311 C22.6110666,7.52832752 28.5388933,6.04718389 33.478749,7.03461298 C37.2069419,7.77984248 40.0910157,11.8996961 41.4938993,15.1493636 L41.6931433,15.6297568 C42.0377655,16.4965669 42.2679639,17.2815186 42.3704892,17.8963329 L42.4134803,18.1835758 L42.4134803,18.1835758 L42.456399,18.5272813 L42.456399,18.5272813 L42.4991729,18.9240475 L42.4991729,18.9240475 L42.5629037,19.6112439 L42.5629037,19.6112439 L42.6259013,20.3986911 L42.6259013,20.3986911 L42.7286039,21.9026987 L42.7286039,21.9026987 L42.8274592,23.6001335 L42.8274592,23.6001335 L42.9213355,25.4378408 L42.9213355,25.4378408 L43.0091014,27.362666 L43.0091014,27.362666 L43.1193722,30.0977438 L43.1193722,30.0977438 L43.2387699,33.5875202 L43.2387699,33.5875202 L43.3268782,36.8870626 L43.3268782,36.8870626 L43.3532478,38.3876604 L43.3532478,38.3876604 L43.3584603,39.1260582 L43.3584603,39.1260582 C43.3584603,41.3506111 44.5864736,44.1888337 47.0425001,47.6407261 L47.3103448,48.01292 L47.3116865,48.2746555 C42.2877737,53.0614005 35.4870602,56 28,56 C18.9527021,56 10.9076141,51.7090295 5.78884678,45.0511992 L7.29751403,45.0506327 C9.2734563,45.0506327 13.7193264,43.5694891 15.2012831,42.58206 C15.9939576,42.0539003 16.503973,40.5369763 16.8069241,38.4846087 L16.8813074,37.9373604 C16.8929384,37.8442273 16.9041903,37.7501566 16.9150695,37.6551854 L16.9759206,37.0748518 L16.9759206,37.0748518 L17.0281232,36.4746968 C17.0361194,36.3731185 17.0437678,36.2707889 17.0510744,36.1677452 L17.0908631,35.5412114 L17.0908631,35.5412114 L17.1227488,34.8993272 L17.1227488,34.8993272 L17.1470296,34.243881 L17.1470296,34.243881 L17.1640038,33.5766613 L17.1640038,33.5766613 L17.1739697,32.8994564 L17.1739697,32.8994564 L17.1772253,32.2140546 C17.1772253,31.5969114 17.1849439,30.9643397 17.2032754,30.3163393 L17.2390941,29.3327674 C17.4319366,25.0204795 18.1343224,20.056334 20.1411387,14.4403311 Z" id="Path" fill="#929394"></path>
            <circle id="Oval" stroke="#D5D7D7" cx="28" cy="28" r="27.5"></circle>
        </g>
    </g>
</svg>