<?xml version="1.0" encoding="UTF-8"?>
<svg width="28px" height="28px" viewBox="0 0 28 28" version="1.1" xmlns="http://www.w3.org/2000/svg" xmlns:xlink="http://www.w3.org/1999/xlink">
    <title>icons/small/report</title>
    <g id="icons/small/report" stroke="none" stroke-width="1" fill="none" fill-rule="evenodd">
        <path d="M27,-5.32907052e-15 C27.5522847,-5.32907052e-15 28,0.459314698 28,1.02590809 L28,21.5440699 C28,22.1106633 27.5522847,22.569978 27,22.569978 L6.20710678,22.569978 C6.07449854,22.569978 5.94732158,22.6240212 5.85355339,22.7202188 L0.853553391,27.8497592 C0.658291245,28.0500803 0.341708755,28.0500803 0.146446609,27.8497592 C0.0526784202,27.7535617 0,27.6230898 0,27.487046 L0,1.02590809 C0,0.459314698 0.44771525,-5.32907052e-15 1,-5.32907052e-15 L27,-5.32907052e-15 Z M26.5,1.53886214 L1.5,1.53886214 L1.5,25.0085616 L4.79289322,21.6320789 C5.12629122,21.2900432 5.56527743,21.081236 6.03125393,21.039057 L6.20710678,21.0311159 L26.5,21.0311159 L26.5,1.53886214 Z M14,16 C14.5522847,16 15,16.4477153 15,17 C15,17.5522847 14.5522847,18 14,18 C13.4477153,18 13,17.5522847 13,17 C13,16.4477153 13.4477153,16 14,16 Z M14,4 C14.3796958,4 14.693491,4.29700409 14.7431534,4.68234678 L14.75,4.78947368 L14.75,13.2105263 C14.75,13.6465406 14.4142136,14 14,14 C13.6203042,14 13.306509,13.7029959 13.2568466,13.3176532 L13.25,13.2105263 L13.25,4.78947368 C13.25,4.35345941 13.5857864,4 14,4 Z" id="Shape" fill="#00AEEF" fill-rule="nonzero"></path>
    </g>
</svg>