<?xml version="1.0" encoding="UTF-8"?>
<svg width="40px" height="40px" viewBox="0 0 40 40" version="1.1" xmlns="http://www.w3.org/2000/svg" xmlns:xlink="http://www.w3.org/1999/xlink">
    <title>icons/tasks</title>
    <g id="icons/tasks" stroke="none" stroke-width="1" fill="none" fill-rule="evenodd">
        <path d="M10,4 C10.5522847,4 11,4.44771525 11,5 C11,5.55228475 10.5522847,6 10,6 L7,6 C6.48716416,6 6.06449284,6.38604019 6.00672773,6.88337887 L6,7 L6,35 C6,35.5128358 6.38604019,35.9355072 6.88337887,35.9932723 L7,36 L33,36 C33.5128358,36 33.9355072,35.6139598 33.9932723,35.1166211 L34,35 L34,7 C34,6.48716416 33.6139598,6.06449284 33.1166211,6.00672773 L33,6 L30,6 C29.4477153,6 29,5.55228475 29,5 C29,4.44771525 29.4477153,4 30,4 L33,4 C34.6568542,4 36,5.34314575 36,7 L36,35 C36,36.6568542 34.6568542,38 33,38 L7,38 C5.34314575,38 4,36.6568542 4,35 L4,7 C4,5.34314575 5.34314575,4 7,4 L10,4 Z M28.7071068,16.2928932 C29.0675907,16.6533772 29.0953203,17.2206082 28.7902954,17.6128994 L28.7071068,17.7071068 L18.2071068,28.2071068 C18.0569051,28.3573084 17.8708099,28.4497402 17.6764315,28.4844021 L17.5590314,28.4982669 L17.4409686,28.4982669 C17.2443814,28.4867129 17.0505552,28.4173891 16.8871006,28.2902954 L16.7928932,28.2071068 L11.2928932,22.7071068 C10.9023689,22.3165825 10.9023689,21.6834175 11.2928932,21.2928932 C11.6533772,20.9324093 12.2206082,20.9046797 12.6128994,21.2097046 L12.7071068,21.2928932 L17.5,26.085 L27.2928932,16.2928932 C27.6834175,15.9023689 28.3165825,15.9023689 28.7071068,16.2928932 Z M26,2 C26.5522847,2 27,2.44771525 27,3 L27,7 C27,7.55228475 26.5522847,8 26,8 L14,8 C13.4477153,8 13,7.55228475 13,7 L13,3 C13,2.44771525 13.4477153,2 14,2 L26,2 Z M25,4 L15,4 L15,6 L25,6 L25,4 Z" id="tasks" fill="#00AEEF" fill-rule="nonzero"></path>
    </g>
</svg>