<?xml version="1.0" encoding="UTF-8"?>
<svg width="40px" height="40px" viewBox="0 0 40 40" version="1.1" xmlns="http://www.w3.org/2000/svg" xmlns:xlink="http://www.w3.org/1999/xlink">
    <title>icons/transactions</title>
    <g id="icons/transactions" stroke="none" stroke-width="1" fill="none" fill-rule="evenodd">
        <path d="M35,7 C36.6568542,7 38,8.34314575 38,10 L38,30 C38,31.6568542 36.6568542,33 35,33 L5,33 C3.34314575,33 2,31.6568542 2,30 L2,10 C2,8.34314575 3.34314575,7 5,7 L35,7 Z M36,17 L4,17 L4,30 C4,30.5128358 4.38604019,30.9355072 4.88337887,30.9932723 L5,31 L35,31 C35.5128358,31 35.9355072,30.6139598 35.9932723,30.1166211 L36,30 L36,17 Z M17,25 C17.5522847,25 18,25.4477153 18,26 C18,26.5128358 17.6139598,26.9355072 17.1166211,26.9932723 L17,27 L9,27 C8.44771525,27 8,26.5522847 8,26 C8,25.4871642 8.38604019,25.0644928 8.88337887,25.0067277 L9,25 L17,25 Z M31,25 C31.5522847,25 32,25.4477153 32,26 C32,26.5128358 31.6139598,26.9355072 31.1166211,26.9932723 L31,27 L28,27 C27.4477153,27 27,26.5522847 27,26 C27,25.4871642 27.3860402,25.0644928 27.8833789,25.0067277 L28,25 L31,25 Z M35,9 L5,9 C4.48716416,9 4.06449284,9.38604019 4.00672773,9.88337887 L4,10 L4,15 L36,15 L36,10 C36,9.48716416 35.6139598,9.06449284 35.1166211,9.00672773 L35,9 Z" id="transactions" fill="#00AEEF" fill-rule="nonzero"></path>
    </g>
</svg>